<?xml version="1.0" encoding="UTF-8"?>
<svg xmlns="http://www.w3.org/2000/svg" viewBox="0 0 1024 1024" width="1024" height="1024">
    <defs>

        <radialGradient id="surface" cx="50%" cy="0%" r="120%" fx="50%" fy="0%">
            <stop offset="0" stop-color="#ffffff"></stop>
            <stop offset="0.55" stop-color="#f5f3ec"></stop>
            <stop offset="1" stop-color="#e9e6dc"></stop>
        </radialGradient>
        <linearGradient id="tile-shine" x1="0" y1="0" x2="0" y2="1">
            <stop offset="0" stop-color="#ffffff" stop-opacity="0.55"></stop>
            <stop offset="1" stop-color="#ffffff" stop-opacity="0"></stop>
        </linearGradient>
        <linearGradient id="surface-shine" x1="0" y1="0" x2="0" y2="1">
            <stop offset="0" stop-color="#ffffff" stop-opacity="0.5"></stop>
            <stop offset="0.3" stop-color="#ffffff" stop-opacity="0"></stop>
        </linearGradient>
        <filter id="ds" x="-10%" y="-10%" width="120%" height="130%">
            <feGaussianBlur in="SourceAlpha" stdDeviation="14"></feGaussianBlur>
            <feOffset dx="0" dy="18"></feOffset>
            <feComponentTransfer>
                <feFuncA type="linear" slope="0.28"></feFuncA>
            </feComponentTransfer>
            <feMerge>
                <feMergeNode></feMergeNode>
                <feMergeNode in="SourceGraphic"></feMergeNode>
            </feMerge>
        </filter>

        <linearGradient id="tg0" x1="0" y1="0" x2="1" y2="1">
            <stop offset="0" stop-color="#ff9a5a"></stop>
            <stop offset="1" stop-color="#e25f1d"></stop>
        </linearGradient>
        <linearGradient id="tg1" x1="0" y1="0" x2="1" y2="1">
            <stop offset="0" stop-color="#ff6a8a"></stop>
            <stop offset="1" stop-color="#d63366"></stop>
        </linearGradient>
        <linearGradient id="tg2" x1="0" y1="0" x2="1" y2="1">
            <stop offset="0" stop-color="#20c5b3"></stop>
            <stop offset="1" stop-color="#0e8c80"></stop>
        </linearGradient>
        <linearGradient id="tg3" x1="0" y1="0" x2="1" y2="1">
            <stop offset="0" stop-color="#8b6dff"></stop>
            <stop offset="1" stop-color="#5734d6"></stop>
        </linearGradient>
        <linearGradient id="tg5" x1="0" y1="0" x2="1" y2="1">
            <stop offset="0" stop-color="#4a9bff"></stop>
            <stop offset="1" stop-color="#1d62d6"></stop>
        </linearGradient>
        <linearGradient id="tg6" x1="0" y1="0" x2="1" y2="1">
            <stop offset="0" stop-color="#9b9ea7"></stop>
            <stop offset="1" stop-color="#5a5d66"></stop>
        </linearGradient>
        <linearGradient id="tg7" x1="0" y1="0" x2="1" y2="1">
            <stop offset="0" stop-color="#ffd54a"></stop>
            <stop offset="1" stop-color="#c98a0a"></stop>
        </linearGradient>
        <linearGradient id="tg8" x1="0" y1="0" x2="1" y2="1">
            <stop offset="0" stop-color="#6ad07a"></stop>
            <stop offset="1" stop-color="#2e8a3d"></stop>
        </linearGradient>
    </defs>

    <g>
        <rect x="0" y="0" width="1024" height="1024" rx="229.07" ry="229.07" fill="url(#surface)"></rect>
        <rect x="0" y="0" width="1024" height="307.2" rx="229.07" ry="229.07" fill="url(#surface-shine)"></rect>
    </g>

    <g>
        <rect x="122.88" y="143.36" width="223.10" height="211.35" rx="46.50" ry="46.50" fill="url(#tg0)"></rect>
        <rect x="122.88" y="143.36" width="223.10" height="95.11" rx="46.50" ry="46.50" fill="url(#tile-shine)" opacity="0.4"></rect>
        <rect x="400.45" y="143.36" width="223.10" height="211.35" rx="46.50" ry="46.50" fill="url(#tg1)"></rect>
        <rect x="400.45" y="143.36" width="223.10" height="95.11" rx="46.50" ry="46.50" fill="url(#tile-shine)" opacity="0.4"></rect>
        <rect x="678.02" y="143.36" width="223.10" height="211.35" rx="46.50" ry="46.50" fill="url(#tg2)"></rect>
        <rect x="678.02" y="143.36" width="223.10" height="95.11" rx="46.50" ry="46.50" fill="url(#tile-shine)" opacity="0.4"></rect>
        <rect x="122.88" y="406.32" width="223.10" height="211.35" rx="46.50" ry="46.50" fill="url(#tg3)"></rect>
        <rect x="122.88" y="406.32" width="223.10" height="95.11" rx="46.50" ry="46.50" fill="url(#tile-shine)" opacity="0.4"></rect>
        <rect x="400.45" y="406.32" width="223.10" height="211.35" rx="46.50" ry="46.50" fill="#1c1f2a"></rect>
        <g transform="translate(-236.99 433.69) scale(18.3173)">
            <defs>
                <linearGradient id="lg-a" x1="47.1867" y1="-0.0179797" x2="39.262" y2="8.30148" gradientUnits="userSpaceOnUse">
                    <stop stop-color="#FFF8C6"></stop>
                    <stop offset="0.23" stop-color="#F2E955"></stop>
                    <stop offset="0.41" stop-color="#E9DE00"></stop>
                    <stop offset="0.48" stop-color="#DFD704"></stop>
                    <stop offset="0.83" stop-color="#B2B917"></stop>
                    <stop offset="1" stop-color="#A1AE1E"></stop>
                </linearGradient>
                <linearGradient id="lg-b" x1="43.8683" y1="-3.17899" x2="35.9435" y2="5.14246" gradientUnits="userSpaceOnUse">
                    <stop stop-color="#FFF8C6"></stop>
                    <stop offset="0.23" stop-color="#F2E955"></stop>
                    <stop offset="0.41" stop-color="#E9DE00"></stop>
                    <stop offset="0.48" stop-color="#DFD704"></stop>
                    <stop offset="0.83" stop-color="#B2B917"></stop>
                    <stop offset="1" stop-color="#A1AE1E"></stop>
                </linearGradient>
                <linearGradient id="lg-c" x1="46.3903" y1="-0.775808" x2="38.4656" y2="7.54365" gradientUnits="userSpaceOnUse">
                    <stop stop-color="#FFF8C6"></stop>
                    <stop offset="0.23" stop-color="#F2E955"></stop>
                    <stop offset="0.41" stop-color="#E9DE00"></stop>
                    <stop offset="0.48" stop-color="#DFD704"></stop>
                    <stop offset="0.83" stop-color="#B2B917"></stop>
                    <stop offset="1" stop-color="#A1AE1E"></stop>
                </linearGradient>
            </defs>
            <path fill="url(#lg-a)"
                  d="M43.7927 6.98019L42.7092 5.8135C42.6052 5.71137 42.4928 5.61926 42.3732 5.53828C41.9542 5.25234 41.4658 5.10065 40.9669 5.10151C40.468 5.09987 39.9791 5.25011 39.5588 5.53429C39.4396 5.61577 39.3272 5.70784 39.2228 5.80951L38.1393 6.98019C38.0999 7.02208 38.0696 7.07245 38.0503 7.12786C38.031 7.18326 38.0232 7.24241 38.0275 7.30127C38.0318 7.36013 38.0481 7.41732 38.0752 7.46895C38.1023 7.52057 38.1396 7.56542 38.1846 7.60043L38.4696 7.82181L39.3096 8.47396C39.3544 8.50755 39.4053 8.53075 39.4592 8.54203C39.513 8.55331 39.5685 8.55243 39.622 8.53943C39.6755 8.52643 39.7258 8.50161 39.7695 8.46661C39.8133 8.43161 39.8495 8.38722 39.8759 8.33635C39.8759 8.33635 40.6064 6.88247 40.6309 6.85854C40.6701 6.80246 40.7211 6.75688 40.78 6.72547C40.8388 6.69406 40.9038 6.67769 40.9698 6.67769C41.0357 6.67769 41.1007 6.69406 41.1596 6.72547C41.2184 6.75688 41.2695 6.80246 41.3086 6.85854C41.3256 6.88446 42.0523 8.34034 42.0523 8.34034C42.0787 8.39113 42.115 8.43548 42.1587 8.4705C42.2024 8.50552 42.2526 8.53042 42.306 8.54359C42.3594 8.55676 42.4149 8.5579 42.4687 8.54693C42.5226 8.53596 42.5737 8.51314 42.6186 8.47994L43.4605 7.82779L43.7436 7.60841C43.7901 7.57378 43.8289 7.52878 43.8571 7.4766C43.8854 7.42442 43.9024 7.36633 43.9071 7.30642C43.9118 7.24651 43.904 7.18625 43.8842 7.12988C43.8644 7.07351 43.8332 7.02241 43.7927 6.98019Z"></path>
            <path fill="url(#lg-b)"
                  d="M37.273 5.5064L38.7661 5.0816C38.9007 5.03546 39.0314 4.97742 39.1568 4.90809C39.5975 4.66152 39.9618 4.28631 40.2063 3.82716C40.4529 3.3691 40.5689 2.84552 40.5404 2.31943C40.5328 2.16959 40.5125 2.02076 40.48 1.87469L40.0572 0.299151C40.0415 0.242357 40.0146 0.189756 39.9781 0.144879C39.9416 0.100001 39.8965 0.0638848 39.8457 0.0389525C39.7949 0.0140201 39.7397 0.000848595 39.6837 0.000321638C39.6277 -0.000205319 39.5723 0.0119245 39.5211 0.0358972L39.2021 0.199434L38.2583 0.652151C38.2071 0.676388 38.1615 0.711984 38.1245 0.756521C38.0875 0.801057 38.06 0.853489 38.0438 0.910252C38.0277 0.967016 38.0234 1.02678 38.031 1.08548C38.0387 1.14419 38.0583 1.20045 38.0884 1.25046C38.0884 1.25046 38.9303 2.6465 38.9416 2.66445C38.9693 2.72749 38.9822 2.79665 38.9793 2.86608C38.9763 2.93551 38.9576 3.00316 38.9246 3.06332C38.8927 3.12434 38.8474 3.17644 38.7926 3.21528C38.7378 3.25413 38.675 3.2786 38.6094 3.28669C38.5792 3.28669 37.0238 3.24281 37.0238 3.24281C36.9682 3.24057 36.9128 3.25089 36.8613 3.27308C36.8098 3.29528 36.7634 3.32883 36.7252 3.37149C36.6869 3.41416 36.6578 3.46496 36.6396 3.5205C36.6214 3.57603 36.6147 3.63503 36.6198 3.69353L36.7444 4.78843L36.786 5.15739C36.7924 5.21598 36.8108 5.2724 36.8398 5.32283C36.8688 5.37325 36.9077 5.41649 36.9539 5.4496C37.0001 5.48272 37.0525 5.50493 37.1076 5.51473C37.1626 5.52453 37.219 5.52169 37.273 5.5064Z"></path>
            <path fill="url(#lg-c)"
                  d="M44.5159 5.51636L43.0228 5.08758C42.8877 5.04198 42.7569 4.98323 42.6321 4.91208C42.1911 4.66577 41.8271 4.28959 41.5844 3.82914C41.2635 3.238 41.167 2.54012 41.3145 1.87668L41.7449 0.307123C41.7598 0.24953 41.7863 0.196038 41.8227 0.150337C41.8591 0.104636 41.9044 0.067813 41.9555 0.0424082C42.0067 0.0170033 42.0624 0.00362122 42.1189 0.00318485C42.1754 0.00274849 42.2314 0.0152683 42.2829 0.0398806L42.6037 0.193446L43.5476 0.650152C43.5989 0.674247 43.6446 0.709852 43.6816 0.754494C43.7186 0.799137 43.7459 0.851748 43.7617 0.908675C43.7775 0.965602 43.7814 1.02548 43.7731 1.08416C43.7648 1.14283 43.7445 1.19889 43.7137 1.24846C43.7137 1.24846 42.8699 2.63054 42.8586 2.66046C42.8311 2.7238 42.8181 2.79311 42.8207 2.86275C42.8233 2.93239 42.8415 3.0004 42.8737 3.06123C42.9058 3.12207 42.9512 3.17401 43.006 3.21284C43.0607 3.25167 43.1234 3.27629 43.1889 3.28469C43.2191 3.28469 44.7764 3.24679 44.7764 3.24679C44.8322 3.2455 44.8875 3.25689 44.9388 3.2802C44.99 3.30352 45.0359 3.3382 45.0733 3.3819C45.1107 3.4256 45.1388 3.47729 45.1556 3.53347C45.1725 3.58965 45.1777 3.649 45.1709 3.70749L45.0444 4.80239L45.0029 5.17134C44.9959 5.22958 44.9772 5.28556 44.948 5.33551C44.9188 5.38547 44.8799 5.42823 44.8337 5.46092C44.7876 5.49362 44.7353 5.51548 44.6805 5.52504C44.6257 5.53461 44.5696 5.53165 44.5159 5.51636Z"></path>
        </g>
        <rect x="678.02" y="406.32" width="223.10" height="211.35" rx="46.50" ry="46.50" fill="url(#tg5)"></rect>
        <rect x="678.02" y="406.32" width="223.10" height="95.11" rx="46.50" ry="46.50" fill="url(#tile-shine)" opacity="0.4"></rect>
        <rect x="122.88" y="669.29" width="223.10" height="211.35" rx="46.50" ry="46.50" fill="url(#tg6)"></rect>
        <rect x="122.88" y="669.29" width="223.10" height="95.11" rx="46.50" ry="46.50" fill="url(#tile-shine)" opacity="0.4"></rect>
        <rect x="400.45" y="669.29" width="223.10" height="211.35" rx="46.50" ry="46.50" fill="url(#tg7)"></rect>
        <rect x="400.45" y="669.29" width="223.10" height="95.11" rx="46.50" ry="46.50" fill="url(#tile-shine)" opacity="0.4"></rect>
        <rect x="678.02" y="669.29" width="223.10" height="211.35" rx="46.50" ry="46.50" fill="url(#tg8)"></rect>
        <rect x="678.02" y="669.29" width="223.10" height="95.11" rx="46.50" ry="46.50" fill="url(#tile-shine)" opacity="0.4"></rect>
    </g>

</svg>